<?xml version="1.0" encoding="utf-8" ?><svg xmlns="http://www.w3.org/2000/svg" xmlns:xlink="http://www.w3.org/1999/xlink" width="1024" height="1024" viewBox="0 0 1024 1024"><path fill="#F7F5E6" d="M0 0L1024 0L1024 1024L0 1024L0 0Z"/><path fill="#F8263B" d="M513.905 362.657C532.57 339.097 551.866 330.408 581.852 329.342C581.462 333.022 581.172 336.486 580.364 340.103C588.078 340.473 595.938 340.444 603.671 340.492C601.312 360.24 598.857 368.329 584.768 382.769C596.411 385.904 616.286 393.408 625.1 401.111C626.927 402.249 628.466 403.462 630.384 404.439C660.337 419.242 682.808 447.479 693.451 478.854C701.15 501.549 702.264 519.766 702.108 543.309C702.003 559.095 701.915 569.981 698.691 585.764C695.941 599.064 691.466 611.948 685.38 624.089C668.408 658.244 638.434 684.157 602.184 696.013C593.242 698.976 584.021 701.022 574.665 702.118C566.35 703.056 556.243 703.42 547.87 703.099C525.02 702.221 498.866 705.047 476.402 701.322C461.386 698.88 446.83 694.168 433.231 687.349C409.005 675.127 368.335 641.176 357.169 616.757C338.27 583.174 337.234 551.7 337.998 514.492C339.553 438.682 391.34 378.137 470.008 379.557C468.304 378.702 466.653 377.746 465.064 376.693C451.348 367.805 443.225 355.617 439.823 339.705L439.613 339.045C439.113 335.9 438.481 332.624 438.374 329.459C456.404 329.792 469.045 332.926 484.826 342.348C487.528 343.961 490.785 347.571 493.121 348.852C500.866 353.095 507.381 356.408 513.905 362.657Z"/><path fill="#2F2D2D" d="M630.384 404.439C660.337 419.242 682.808 447.479 693.451 478.854C701.15 501.549 702.264 519.766 702.108 543.309C702.003 559.095 701.915 569.981 698.691 585.764C695.941 599.064 691.466 611.948 685.38 624.089C668.408 658.244 638.434 684.157 602.184 696.013C593.242 698.976 584.021 701.022 574.665 702.118C566.35 703.056 556.243 703.42 547.87 703.099C525.02 702.221 498.866 705.047 476.402 701.322C461.386 698.88 446.83 694.168 433.231 687.349C409.005 675.127 368.335 641.176 357.169 616.757L357.992 616.558C364.371 629.521 377.797 644.651 388.742 654.035C409.767 672.29 435.961 683.534 463.676 686.201C483.232 688.206 503.652 686.943 523.325 687.275C530.389 687.394 538.088 687.213 545.125 686.654C583.512 683.914 619.181 665.838 644.091 636.502C677.766 596.785 682.944 553.397 679.198 503.536C676.351 465.629 659.301 430.875 630.332 406.384L630.384 404.439Z"/><path fill="#098E66" d="M513.905 362.657C532.57 339.097 551.866 330.408 581.852 329.342C581.462 333.022 581.172 336.486 580.364 340.103C588.078 340.473 595.938 340.444 603.671 340.492C601.312 360.24 598.857 368.329 584.768 382.769C596.411 385.904 616.286 393.408 625.1 401.111L623.971 401.538C601.209 385.507 573.257 378.606 545.649 382.199C538.714 383.051 531.815 385.064 524.024 385.971L523.279 385.314C518.983 385.745 509.729 385.469 505.185 385.422C506.042 383.09 508.672 376.146 509.184 374.242L508.443 373.398C497.089 343.685 469.105 331.997 439.306 330.553C439.875 333.035 440.284 336.046 440.699 338.596L439.613 339.045C439.113 335.9 438.481 332.624 438.374 329.459C456.404 329.792 469.045 332.926 484.826 342.348C487.528 343.961 490.785 347.571 493.121 348.852C500.866 353.095 507.381 356.408 513.905 362.657Z"/><path fill="#2F2D2D" d="M513.905 362.657C532.57 339.097 551.866 330.408 581.852 329.342C581.462 333.022 581.172 336.486 580.364 340.103C588.078 340.473 595.938 340.444 603.671 340.492C601.312 360.24 598.857 368.329 584.768 382.769C596.411 385.904 616.286 393.408 625.1 401.111L623.971 401.538C601.209 385.507 573.257 378.606 545.649 382.199C538.714 383.051 531.815 385.064 524.024 385.971L523.279 385.314C532.149 383.611 537.447 383.759 546.192 379.823C567.426 370.264 577.309 354.723 580.183 332.33C579.463 329.924 576.229 331.142 573.487 331.01C561.537 331.942 550.388 334.869 539.93 340.758C539.494 340.948 539.711 340.841 539.279 341.081L537.439 342.234C537.072 342.405 537.196 342.329 536.82 342.608C534.647 344.019 532.877 345.099 530.891 346.788C530.579 346.924 530.606 346.938 530.347 347.195C524.934 351.334 521.13 354.835 517.112 360.472C516.834 360.734 516.902 360.672 516.691 361.027C513.723 365.151 511.206 369.581 509.184 374.242L508.443 373.398C497.089 343.685 469.105 331.997 439.306 330.553C439.875 333.035 440.284 336.046 440.699 338.596L439.613 339.045C439.113 335.9 438.481 332.624 438.374 329.459C456.404 329.792 469.045 332.926 484.826 342.348C487.528 343.961 490.785 347.571 493.121 348.852C500.866 353.095 507.381 356.408 513.905 362.657Z"/><path fill="#135A44" d="M573.487 331.01C575.261 330.744 581.182 329.135 580.183 332.33C579.463 329.924 576.229 331.142 573.487 331.01Z"/><path fill="#098E66" d="M439.306 330.553C469.105 331.997 497.089 343.685 508.443 373.398C507.508 376.466 505.072 382.129 503.812 385.644C499.51 385.322 495.011 384.574 490.755 384.434C480.178 382.572 472.151 380.738 463.434 374.311C463.035 373.907 463.073 373.94 462.554 373.713L461.958 373.352C461.25 372.93 461.211 372.985 460.783 372.386L459.502 371.528C458.783 371.049 458.833 371.155 458.413 370.496C456.216 368.693 455.337 367.656 453.506 365.566C452.818 365.182 452.904 365.177 452.624 364.382L451.832 363.568C451.153 362.958 451.007 362.954 450.764 362.179C446.205 356.047 442.294 347.299 441.008 339.739L439.823 339.705L439.613 339.045L440.699 338.596C440.284 336.046 439.875 333.035 439.306 330.553Z"/><path fill="#135A44" d="M440.699 338.596C440.922 339.035 440.914 339.247 441.008 339.739L439.823 339.705L439.613 339.045L440.699 338.596Z"/><path fill="#0C7859" d="M452.624 364.382C453.264 364.778 453.357 364.829 453.506 365.566C452.818 365.182 452.904 365.177 452.624 364.382Z"/><path fill="#0C7859" d="M458.413 370.496C459.236 370.726 459.24 370.723 459.502 371.528C458.783 371.049 458.833 371.155 458.413 370.496Z"/><path fill="#0C7859" d="M450.764 362.179C451.692 362.382 451.542 362.714 451.832 363.568C451.153 362.958 451.007 362.954 450.764 362.179Z"/><path fill="#560C0E" d="M439.823 339.705L441.008 339.739C442.294 347.299 446.205 356.047 450.764 362.179C451.007 362.954 451.153 362.958 451.832 363.568L452.624 364.382C452.904 365.177 452.818 365.182 453.506 365.566C455.337 367.656 456.216 368.693 458.413 370.496C458.833 371.155 458.783 371.049 459.502 371.528L460.783 372.386C461.211 372.985 461.25 372.93 461.958 373.352L462.554 373.713C463.073 373.94 463.035 373.907 463.434 374.311C472.151 380.738 480.178 382.572 490.755 384.434L490.584 384.869L489.86 384.787C483.109 383.979 475.729 381.056 469.305 380.761C400.637 377.607 347.786 430.586 340.177 497.016C338.998 507.307 338.833 516.859 338.967 527.195C338.118 558.674 342.303 588.557 357.992 616.558L357.169 616.757C338.27 583.174 337.234 551.7 337.998 514.492C339.553 438.682 391.34 378.137 470.008 379.557C468.304 378.702 466.653 377.746 465.064 376.693C451.348 367.805 443.225 355.617 439.823 339.705Z"/><path fill="#0A1D16" d="M508.443 373.398L509.184 374.242C508.672 376.146 506.042 383.09 505.185 385.422C509.729 385.469 518.983 385.745 523.279 385.314L524.024 385.971C509.16 386.336 505.472 386.397 490.584 384.869L490.755 384.434C495.011 384.574 499.51 385.322 503.812 385.644C505.072 382.129 507.508 376.466 508.443 373.398Z"/><path fill="#560C0E" d="M623.971 401.538L625.1 401.111C626.927 402.249 628.466 403.462 630.384 404.439L630.332 406.384C628.623 404.9 627.291 403.845 625.438 402.562C624.945 402.227 624.456 401.885 623.971 401.538Z"/><path fill="#F3E4E2" d="M488.467 404.776C542.624 395.247 596.891 420.97 623.801 468.925C650.71 516.88 644.389 576.601 608.037 617.86C571.684 659.119 513.234 672.912 462.272 652.257C411.31 631.601 378.957 581.006 381.589 526.08C384.486 465.636 428.869 415.262 488.467 404.776Z"/><path fill="#C1BABA" d="M381.589 526.08C384.486 465.636 428.869 415.262 488.467 404.776L487.822 405.055C483.027 407.091 477.177 408.473 472.12 409.969C427.866 423.062 392.882 461.108 385.181 506.847C384.074 513.422 383.522 519.657 381.589 526.08Z"/><path fill="#F8263B" d="M393.984 527.237C397.397 475.415 431.553 432.55 482.059 419.497C547.649 402.546 610.641 444.575 625.705 509.562L626.71 509.861C627.962 512.523 628.382 517.272 628.724 520.223C630.605 536.436 628.579 553.517 623.416 568.966C623.019 570.152 622.707 571.043 621.934 572.042L620.691 572.494C610.41 601.142 587.123 625.033 559.666 637.517C539.126 646.856 523.832 649.317 501.703 648.457C494.524 649.283 487.219 648.186 480.228 646.08C449.735 636.896 423.919 617.746 407.827 590.07C399.117 575.091 389.401 543.842 393.984 527.237Z"/><path fill="#C1BABA" d="M501.703 648.457C494.524 649.283 487.219 648.186 480.228 646.08C449.735 636.896 423.919 617.746 407.827 590.07C399.117 575.091 389.401 543.842 393.984 527.237C394.05 584.415 426.72 629.335 482.461 644.995C488.847 646.79 495.376 647.093 501.703 648.457Z"/><path fill="#F7F5E6" d="M625.705 509.562L626.71 509.861C627.962 512.523 628.382 517.272 628.724 520.223C630.605 536.436 628.579 553.517 623.416 568.966C623.019 570.152 622.707 571.043 621.934 572.042L620.691 572.494C628.625 550.054 629.39 532.622 625.705 509.562Z"/><path fill="#F3E4E2" d="M507.654 449.158C525.839 448.263 522.35 462.494 522.336 476.209L522.179 507.112C522.133 513.084 521.875 521.198 522.388 526.99L522.457 527.725C531.972 536.723 569.797 555.208 573.719 563.499C574.97 566.143 574.868 569.107 573.757 571.778C572.072 575.829 569.694 577.646 565.728 579.227C564.456 579.362 562.803 579.679 561.552 579.385C556.868 578.285 502.624 543.929 500.736 540.378C499.668 538.369 499.514 534.802 499.374 532.529C498.796 523.128 498.213 460.915 500.124 455.934C501.534 452.259 504.179 450.643 507.654 449.158Z"/></svg>